<svg width="396" height="524" viewBox="0 0 396 524" fill="none" xmlns="http://www.w3.org/2000/svg">
<g filter="url(#filter0_dd_116_66)">
<path d="M6 20C6 8.95431 14.9543 0 26 0H370C381.046 0 390 8.95431 390 20V492C390 503.046 381.046 512 370 512H26C14.9543 512 6 503.046 6 492V20Z" fill="#3B3B3D"/>
</g>
<path d="M6 26C6 14.9543 14.9543 6 26 6H370C381.046 6 390 14.9543 390 26V53H6V26Z" fill="url(#paint0_linear_116_66)" fill-opacity="0.2"/>
<path d="M6 20C6 8.95431 14.9543 0 26 0H370C381.046 0 390 8.95431 390 20V47H6V20Z" fill="#767676"/>
<circle cx="31" cy="24" r="11" fill="#FF605C"/>
<circle cx="61" cy="24" r="11" fill="#FFBD44"/>
<circle cx="91" cy="24" r="11" fill="#00CA4E"/>
<defs>
<filter id="filter0_dd_116_66" x="0" y="0" width="396" height="524" filterUnits="userSpaceOnUse" color-interpolation-filters="sRGB">
<feFlood flood-opacity="0" result="BackgroundImageFix"/>
<feColorMatrix in="SourceAlpha" type="matrix" values="0 0 0 0 0 0 0 0 0 0 0 0 0 0 0 0 0 0 127 0" result="hardAlpha"/>
<feOffset dy="6"/>
<feGaussianBlur stdDeviation="3"/>
<feComposite in2="hardAlpha" operator="out"/>
<feColorMatrix type="matrix" values="0 0 0 0 0 0 0 0 0 0 0 0 0 0 0 0 0 0 0.55 0"/>
<feBlend mode="normal" in2="BackgroundImageFix" result="effect1_dropShadow_116_66"/>
<feColorMatrix in="SourceAlpha" type="matrix" values="0 0 0 0 0 0 0 0 0 0 0 0 0 0 0 0 0 0 127 0" result="hardAlpha"/>
<feOffset dy="6"/>
<feGaussianBlur stdDeviation="3"/>
<feComposite in2="hardAlpha" operator="out"/>
<feColorMatrix type="matrix" values="0 0 0 0 0 0 0 0 0 0 0 0 0 0 0 0 0 0 0.55 0"/>
<feBlend mode="normal" in2="effect1_dropShadow_116_66" result="effect2_dropShadow_116_66"/>
<feBlend mode="normal" in="SourceGraphic" in2="effect2_dropShadow_116_66" result="shape"/>
</filter>
<linearGradient id="paint0_linear_116_66" x1="198" y1="6" x2="198" y2="53" gradientUnits="userSpaceOnUse">
<stop offset="0.9375"/>
<stop offset="1" stop-opacity="0"/>
</linearGradient>
</defs>
</svg>
