<svg xmlns="http://www.w3.org/2000/svg" width="36" height="36" viewBox="0 0 52 51" fill="none">
<ellipse cx="26" cy="26.5" rx="20" ry="20" fill="white"/>
<path d="M26 4.86792C20.8552 4.86813 15.8783 6.699 11.9599 10.0329C8.04149 13.3668 5.43723 17.9863 4.6131 23.0646C3.78897 28.143 4.79875 33.3489 7.46176 37.7509C10.1248 42.1529 14.2672 45.4636 19.1479 47.0908C20.2313 47.2804 20.6375 46.6305 20.6375 46.0616C20.6375 45.5471 20.6104 43.8408 20.6104 42.0263C15.1666 43.0283 13.7583 40.6992 13.325 39.4805C12.8441 38.2952 12.0819 37.2447 11.1041 36.42C10.3458 36.0138 9.26248 35.0117 11.077 34.9846C11.7699 35.0598 12.4344 35.3009 13.0143 35.6875C13.5942 36.0741 14.0724 36.5948 14.4083 37.2054C14.7046 37.7377 15.1031 38.2064 15.5809 38.5845C16.0587 38.9626 16.6063 39.2427 17.1925 39.4087C17.7788 39.5748 18.392 39.6235 18.997 39.5522C19.6021 39.4808 20.1872 39.2908 20.7187 38.9929C20.8125 37.8914 21.3034 36.8616 22.1 36.0951C17.2791 35.5534 12.2416 33.6846 12.2416 25.3972C12.2112 23.2438 13.0058 21.1604 14.4625 19.5742C13.8001 17.7027 13.8776 15.6489 14.6791 13.8326C14.6791 13.8326 16.4937 13.2638 20.6375 16.0534C24.1828 15.0783 27.9255 15.0783 31.4708 16.0534C35.6145 13.2367 37.4291 13.8326 37.4291 13.8326C38.2308 15.6488 38.3083 17.7027 37.6458 19.5742C39.1069 21.1577 39.9022 23.2429 39.8666 25.3972C39.8666 33.7117 34.802 35.5534 29.9812 36.0951C30.4983 36.6192 30.8965 37.2484 31.1489 37.94C31.4012 38.6316 31.5018 39.3695 31.4437 40.1034C31.4437 43.0014 31.4166 45.3304 31.4166 46.0617C31.4166 46.6305 31.8229 47.3076 32.9062 47.0909C37.7783 45.4504 41.9089 42.1319 44.5605 37.7277C47.2122 33.3235 48.2124 28.1202 47.3825 23.0468C46.5527 17.9733 43.9469 13.3599 40.0302 10.03C36.1135 6.70016 31.1408 4.8706 26 4.86792Z" fill="black"/>
</svg>