<svg width="36" height="36" viewBox="0 0 44 44" fill="none" xmlns="http://www.w3.org/2000/svg">
<path d="M40.3517 0.333311H3.64838C3.2358 0.327581 2.82613 0.40318 2.44277 0.555792C2.05941 0.708404 1.70987 0.935039 1.41411 1.22275C1.11834 1.51047 0.882155 1.85363 0.719028 2.23263C0.555901 2.61164 0.46903 3.01906 0.463379 3.43164V40.5683C0.46903 40.9809 0.555901 41.3883 0.719028 41.7673C0.882155 42.1463 1.11834 42.4895 1.41411 42.7772C1.70987 43.0649 2.05941 43.2915 2.44277 43.4442C2.82613 43.5968 3.2358 43.6724 3.64838 43.6666H40.3517C40.7643 43.6724 41.174 43.5968 41.5573 43.4442C41.9407 43.2915 42.2902 43.0649 42.586 42.7772C42.8817 42.4895 43.1179 42.1463 43.2811 41.7673C43.4442 41.3883 43.5311 40.9809 43.5367 40.5683V3.43164C43.5311 3.01906 43.4442 2.61164 43.2811 2.23263C43.1179 1.85363 42.8817 1.51047 42.586 1.22275C42.2902 0.935039 41.9407 0.708404 41.5573 0.555792C41.174 0.40318 40.7643 0.327581 40.3517 0.333311ZM13.5284 36.6033H7.02838V17.1033H13.5284V36.6033ZM10.2784 14.3733C9.38195 14.3733 8.52223 14.0172 7.88836 13.3833C7.25449 12.7495 6.89838 11.8897 6.89838 10.9933C6.89838 10.0969 7.25449 9.23716 7.88836 8.60329C8.52223 7.96942 9.38195 7.61331 10.2784 7.61331C10.7544 7.55933 11.2364 7.60649 11.6929 7.75172C12.1495 7.89695 12.5701 8.13697 12.9275 8.45606C13.2848 8.77515 13.5707 9.16611 13.7664 9.60335C13.9622 10.0406 14.0634 10.5143 14.0634 10.9933C14.0634 11.4724 13.9622 11.946 13.7664 12.3833C13.5707 12.8205 13.2848 13.2115 12.9275 13.5306C12.5701 13.8496 12.1495 14.0897 11.6929 14.2349C11.2364 14.3801 10.7544 14.4273 10.2784 14.3733ZM36.9717 36.6033H30.4717V26.1383C30.4717 23.5166 29.54 21.805 27.1784 21.805C26.4475 21.8103 25.7358 22.0396 25.1392 22.4618C24.5426 22.8841 24.0898 23.4791 23.8417 24.1666C23.6722 24.6759 23.5987 25.2122 23.625 25.7483V36.5816H17.125C17.125 36.5816 17.125 18.8583 17.125 17.0816H23.625V19.8333C24.2155 18.8087 25.0743 17.9646 26.109 17.3919C27.1437 16.8192 28.3149 16.5397 29.4967 16.5833C33.83 16.5833 36.9717 19.3783 36.9717 25.38V36.6033Z" fill="black"/>
</svg>
