<svg width="344" height="113" viewBox="0 0 544 313" fill="none" xmlns="http://www.w3.org/2000/svg">
<path d="M516.476 310.297C516.476 311.79 407.141 313 272.27 313C137.398 313 28.0635 311.79 28.0635 310.297C28.0635 308.804 137.398 307.594 272.27 307.594C407.141 307.594 516.476 308.804 516.476 310.297Z" fill="black"/>
<path d="M52.8889 13.5502C52.8889 6.06662 58.9454 0 66.4164 0H479.742C487.213 0 493.27 6.06664 493.27 13.5502V297.55C493.27 298.619 492.405 299.485 491.337 299.485H54.8214C53.7541 299.485 52.8889 298.619 52.8889 297.55V13.5502Z" fill="#1A202C"/>
<path d="M55.5873 13.3496C55.5873 7.4696 60.346 2.70295 66.2161 2.70295H479.943C485.813 2.70295 490.571 7.46959 490.571 13.3495V288.133H55.5873V13.3496Z" fill="black"/>
<path d="M66.9207 17.8394H477.619V276.24H66.9207V17.8394Z" fill="white"/>
<path d="M207.409 141.785V150.231H205.626V141.785H207.409Z" fill="#2D3748"/>
<path d="M210.597 146.569V150.231H208.842V143.896H210.514V145.014H210.588C210.728 144.645 210.963 144.354 211.292 144.14C211.622 143.922 212.021 143.814 212.491 143.814C212.93 143.814 213.313 143.91 213.639 144.102C213.966 144.295 214.22 144.57 214.401 144.927C214.582 145.282 214.673 145.705 214.673 146.198V150.231H212.919V146.511C212.922 146.123 212.823 145.821 212.622 145.604C212.422 145.384 212.146 145.274 211.795 145.274C211.559 145.274 211.35 145.325 211.169 145.426C210.99 145.528 210.85 145.677 210.749 145.872C210.65 146.064 210.599 146.297 210.597 146.569Z" fill="#2D3748"/>
<path d="M221.318 145.703L219.712 145.802C219.684 145.664 219.625 145.541 219.535 145.431C219.444 145.318 219.325 145.228 219.176 145.162C219.031 145.094 218.857 145.059 218.654 145.059C218.382 145.059 218.153 145.117 217.966 145.233C217.779 145.345 217.686 145.497 217.686 145.686C217.686 145.837 217.746 145.965 217.867 146.07C217.988 146.174 218.195 146.258 218.489 146.321L219.634 146.552C220.248 146.679 220.707 146.882 221.009 147.163C221.311 147.443 221.462 147.812 221.462 148.268C221.462 148.683 221.34 149.048 221.095 149.361C220.854 149.675 220.522 149.919 220.099 150.095C219.679 150.269 219.194 150.355 218.645 150.355C217.808 150.355 217.141 150.181 216.644 149.831C216.15 149.479 215.86 149.001 215.775 148.396L217.501 148.305C217.553 148.561 217.679 148.756 217.879 148.891C218.08 149.023 218.336 149.089 218.649 149.089C218.957 149.089 219.204 149.03 219.391 148.912C219.58 148.791 219.676 148.635 219.679 148.445C219.676 148.286 219.609 148.155 219.477 148.054C219.345 147.949 219.142 147.869 218.868 147.814L217.772 147.596C217.155 147.472 216.695 147.258 216.393 146.952C216.094 146.647 215.944 146.258 215.944 145.785C215.944 145.378 216.054 145.028 216.274 144.733C216.496 144.439 216.808 144.212 217.208 144.053C217.612 143.893 218.084 143.814 218.625 143.814C219.424 143.814 220.052 143.983 220.511 144.321C220.972 144.659 221.241 145.12 221.318 145.703Z" fill="#2D3748"/>
<path d="M225.449 150.355C224.798 150.355 224.238 150.223 223.769 149.959C223.302 149.692 222.942 149.316 222.69 148.829C222.437 148.34 222.311 147.761 222.311 147.093C222.311 146.441 222.437 145.869 222.69 145.377C222.942 144.885 223.298 144.501 223.756 144.226C224.217 143.951 224.758 143.814 225.379 143.814C225.796 143.814 226.184 143.881 226.544 144.016C226.906 144.148 227.222 144.347 227.491 144.614C227.763 144.881 227.974 145.216 228.125 145.62C228.276 146.022 228.351 146.492 228.351 147.031V147.513H223.011V146.424H226.7C226.7 146.172 226.645 145.947 226.536 145.752C226.426 145.557 226.273 145.404 226.079 145.294C225.886 145.182 225.663 145.125 225.407 145.125C225.141 145.125 224.905 145.187 224.699 145.311C224.496 145.432 224.337 145.595 224.221 145.802C224.106 146.005 224.047 146.232 224.044 146.482V147.518C224.044 147.831 224.102 148.102 224.217 148.33C224.335 148.558 224.501 148.734 224.716 148.858C224.93 148.982 225.184 149.044 225.477 149.044C225.672 149.044 225.851 149.016 226.013 148.961C226.175 148.906 226.313 148.824 226.428 148.714C226.544 148.604 226.632 148.469 226.692 148.309L228.314 148.417C228.232 148.807 228.063 149.148 227.808 149.439C227.555 149.728 227.229 149.954 226.828 150.116C226.43 150.275 225.97 150.355 225.449 150.355Z" fill="#2D3748"/>
<path d="M229.496 150.231V143.896H231.197V145.002H231.263C231.378 144.608 231.571 144.311 231.843 144.111C232.115 143.907 232.428 143.805 232.782 143.805C232.87 143.805 232.964 143.811 233.066 143.822C233.168 143.833 233.257 143.848 233.334 143.867V145.426C233.251 145.402 233.137 145.38 232.992 145.36C232.846 145.341 232.713 145.332 232.592 145.332C232.334 145.332 232.104 145.388 231.901 145.501C231.7 145.611 231.541 145.765 231.423 145.963C231.308 146.161 231.25 146.389 231.25 146.647V150.231H229.496Z" fill="#2D3748"/>
<path d="M237.922 143.896V145.216H234.113V143.896H237.922ZM234.978 142.378H236.732V148.285C236.732 148.447 236.756 148.573 236.806 148.664C236.855 148.752 236.924 148.814 237.012 148.85C237.102 148.885 237.207 148.903 237.325 148.903C237.407 148.903 237.489 148.896 237.572 148.883C237.654 148.866 237.717 148.854 237.761 148.846L238.037 150.153C237.949 150.181 237.826 150.212 237.666 150.248C237.507 150.286 237.314 150.31 237.086 150.318C236.663 150.334 236.292 150.278 235.974 150.149C235.658 150.02 235.413 149.819 235.237 149.547C235.061 149.275 234.975 148.931 234.978 148.516V142.378Z" fill="#2D3748"/>
<path d="M241.287 141.785H243.284L245.207 145.422H245.289L247.212 141.785H249.209L246.133 147.245V150.231H244.362V147.245L241.287 141.785Z" fill="#2D3748"/>
<path d="M251.682 150.355C251.043 150.355 250.49 150.219 250.023 149.947C249.559 149.672 249.201 149.29 248.948 148.8C248.696 148.308 248.57 147.737 248.57 147.089C248.57 146.434 248.696 145.862 248.948 145.373C249.201 144.881 249.559 144.498 250.023 144.226C250.49 143.951 251.043 143.814 251.682 143.814C252.322 143.814 252.874 143.951 253.338 144.226C253.804 144.498 254.164 144.881 254.417 145.373C254.669 145.862 254.795 146.434 254.795 147.089C254.795 147.737 254.669 148.308 254.417 148.8C254.164 149.29 253.804 149.672 253.338 149.947C252.874 150.219 252.322 150.355 251.682 150.355ZM251.691 148.994C251.982 148.994 252.225 148.912 252.42 148.747C252.614 148.579 252.761 148.351 252.86 148.062C252.962 147.773 253.012 147.445 253.012 147.076C253.012 146.708 252.962 146.379 252.86 146.09C252.761 145.802 252.614 145.574 252.42 145.406C252.225 145.238 251.982 145.154 251.691 145.154C251.397 145.154 251.15 145.238 250.95 145.406C250.752 145.574 250.602 145.802 250.501 146.09C250.402 146.379 250.353 146.708 250.353 147.076C250.353 147.445 250.402 147.773 250.501 148.062C250.602 148.351 250.752 148.579 250.95 148.747C251.15 148.912 251.397 148.994 251.691 148.994Z" fill="#2D3748"/>
<path d="M259.992 147.534V143.896H261.746V150.231H260.062V149.081H259.996C259.853 149.452 259.616 149.75 259.283 149.976C258.954 150.201 258.552 150.314 258.077 150.314C257.654 150.314 257.282 150.218 256.961 150.025C256.64 149.833 256.389 149.559 256.208 149.204C256.029 148.85 255.939 148.425 255.936 147.93V143.896H257.69V147.616C257.693 147.99 257.793 148.286 257.991 148.503C258.188 148.72 258.453 148.829 258.785 148.829C258.997 148.829 259.194 148.781 259.378 148.685C259.562 148.586 259.71 148.44 259.823 148.248C259.938 148.055 259.994 147.817 259.992 147.534Z" fill="#2D3748"/>
<path d="M263.149 150.231V143.896H264.849V145.002H264.915C265.031 144.608 265.224 144.311 265.496 144.111C265.768 143.907 266.081 143.805 266.435 143.805C266.522 143.805 266.617 143.811 266.719 143.822C266.82 143.833 266.91 143.848 266.986 143.867V145.426C266.904 145.402 266.79 145.38 266.645 145.36C266.499 145.341 266.366 145.332 266.245 145.332C265.987 145.332 265.757 145.388 265.553 145.501C265.353 145.611 265.194 145.765 265.076 145.963C264.961 146.161 264.903 146.389 264.903 146.647V150.231H263.149Z" fill="#2D3748"/>
<path d="M273.599 150.231H270.61V141.785H273.624C274.472 141.785 275.202 141.954 275.814 142.292C276.427 142.627 276.897 143.11 277.227 143.739C277.559 144.369 277.725 145.123 277.725 146C277.725 146.88 277.559 147.636 277.227 148.268C276.897 148.901 276.424 149.386 275.806 149.724C275.191 150.062 274.456 150.231 273.599 150.231ZM272.393 148.701H273.525C274.052 148.701 274.495 148.608 274.855 148.421C275.217 148.231 275.489 147.938 275.67 147.542C275.854 147.144 275.946 146.629 275.946 146C275.946 145.376 275.854 144.865 275.67 144.47C275.489 144.074 275.219 143.782 274.859 143.595C274.5 143.408 274.056 143.315 273.529 143.315H272.393V148.701Z" fill="#2D3748"/>
<path d="M281.895 150.355C281.244 150.355 280.684 150.223 280.215 149.959C279.748 149.692 279.389 149.316 279.136 148.829C278.884 148.34 278.757 147.761 278.757 147.093C278.757 146.441 278.884 145.869 279.136 145.377C279.389 144.885 279.744 144.501 280.203 144.226C280.664 143.951 281.205 143.814 281.825 143.814C282.242 143.814 282.631 143.881 282.99 144.016C283.353 144.148 283.668 144.347 283.937 144.614C284.209 144.881 284.42 145.216 284.571 145.62C284.722 146.022 284.798 146.492 284.798 147.031V147.513H279.457V146.424H283.147C283.147 146.172 283.092 145.947 282.982 145.752C282.872 145.557 282.72 145.404 282.525 145.294C282.333 145.182 282.109 145.125 281.854 145.125C281.588 145.125 281.352 145.187 281.146 145.311C280.943 145.432 280.783 145.595 280.668 145.802C280.553 146.005 280.494 146.232 280.491 146.482V147.518C280.491 147.831 280.549 148.102 280.664 148.33C280.782 148.558 280.948 148.734 281.162 148.858C281.376 148.982 281.63 149.044 281.924 149.044C282.119 149.044 282.297 149.016 282.459 148.961C282.621 148.906 282.76 148.824 282.875 148.714C282.99 148.604 283.078 148.469 283.139 148.309L284.761 148.417C284.678 148.807 284.51 149.148 284.254 149.439C284.002 149.728 283.675 149.954 283.274 150.116C282.876 150.275 282.417 150.355 281.895 150.355Z" fill="#2D3748"/>
<path d="M291.205 145.703L289.599 145.802C289.572 145.664 289.512 145.541 289.422 145.431C289.331 145.318 289.212 145.228 289.064 145.162C288.918 145.094 288.744 145.059 288.541 145.059C288.269 145.059 288.04 145.117 287.853 145.233C287.666 145.345 287.573 145.497 287.573 145.686C287.573 145.837 287.634 145.965 287.754 146.07C287.875 146.174 288.082 146.258 288.376 146.321L289.521 146.552C290.136 146.679 290.594 146.882 290.896 147.163C291.198 147.443 291.349 147.812 291.349 148.268C291.349 148.683 291.227 149.048 290.982 149.361C290.741 149.675 290.409 149.919 289.986 150.095C289.566 150.269 289.082 150.355 288.533 150.355C287.695 150.355 287.028 150.181 286.531 149.831C286.037 149.479 285.748 149.001 285.663 148.396L287.388 148.305C287.44 148.561 287.566 148.756 287.767 148.891C287.967 149.023 288.224 149.089 288.537 149.089C288.844 149.089 289.091 149.03 289.278 148.912C289.467 148.791 289.563 148.635 289.566 148.445C289.563 148.286 289.496 148.155 289.364 148.054C289.232 147.949 289.029 147.869 288.755 147.814L287.66 147.596C287.042 147.472 286.582 147.258 286.28 146.952C285.981 146.647 285.831 146.258 285.831 145.785C285.831 145.378 285.941 145.028 286.161 144.733C286.383 144.439 286.695 144.212 287.095 144.053C287.499 143.893 287.971 143.814 288.512 143.814C289.311 143.814 289.939 143.983 290.398 144.321C290.859 144.659 291.128 145.12 291.205 145.703Z" fill="#2D3748"/>
<path d="M292.453 150.231V143.896H294.208V150.231H292.453ZM293.335 143.08C293.074 143.08 292.85 142.993 292.663 142.82C292.48 142.644 292.388 142.433 292.388 142.189C292.388 141.947 292.48 141.739 292.663 141.566C292.85 141.39 293.074 141.302 293.335 141.302C293.595 141.302 293.818 141.39 294.002 141.566C294.188 141.739 294.282 141.947 294.282 142.189C294.282 142.433 294.188 142.644 294.002 142.82C293.818 142.993 293.595 143.08 293.335 143.08Z" fill="#2D3748"/>
<path d="M298.462 152.739C297.894 152.739 297.407 152.661 297 152.504C296.597 152.35 296.276 152.14 296.037 151.873C295.798 151.606 295.643 151.306 295.571 150.974L297.194 150.755C297.243 150.882 297.321 151 297.428 151.11C297.536 151.22 297.677 151.308 297.853 151.374C298.031 151.443 298.248 151.477 298.503 151.477C298.885 151.477 299.199 151.383 299.446 151.197C299.696 151.012 299.821 150.703 299.821 150.269V149.11H299.747C299.67 149.286 299.555 149.452 299.401 149.609C299.247 149.765 299.049 149.893 298.808 149.992C298.566 150.091 298.278 150.141 297.943 150.141C297.468 150.141 297.036 150.031 296.646 149.811C296.259 149.588 295.95 149.248 295.72 148.792C295.492 148.333 295.378 147.753 295.378 147.051C295.378 146.334 295.495 145.734 295.728 145.253C295.961 144.772 296.271 144.412 296.659 144.173C297.048 143.933 297.475 143.814 297.939 143.814C298.293 143.814 298.59 143.874 298.828 143.995C299.067 144.113 299.259 144.262 299.405 144.441C299.553 144.617 299.667 144.79 299.747 144.96H299.813V143.896H301.554V150.293C301.554 150.832 301.422 151.283 301.159 151.646C300.895 152.009 300.53 152.281 300.064 152.463C299.6 152.647 299.066 152.739 298.462 152.739ZM298.499 148.821C298.782 148.821 299.021 148.751 299.216 148.61C299.413 148.467 299.564 148.264 299.668 148C299.775 147.733 299.829 147.414 299.829 147.043C299.829 146.672 299.777 146.35 299.673 146.078C299.568 145.803 299.417 145.59 299.22 145.439C299.022 145.288 298.782 145.212 298.499 145.212C298.211 145.212 297.968 145.29 297.77 145.447C297.573 145.601 297.423 145.815 297.321 146.09C297.22 146.365 297.169 146.683 297.169 147.043C297.169 147.409 297.22 147.725 297.321 147.992C297.426 148.256 297.575 148.461 297.77 148.606C297.968 148.749 298.211 148.821 298.499 148.821Z" fill="#2D3748"/>
<path d="M304.704 146.569V150.231H302.95V143.896H304.622V145.014H304.696C304.836 144.645 305.071 144.354 305.4 144.14C305.729 143.922 306.129 143.814 306.598 143.814C307.037 143.814 307.42 143.91 307.747 144.102C308.074 144.295 308.328 144.57 308.509 144.927C308.69 145.282 308.781 145.705 308.781 146.198V150.231H307.026V146.511C307.029 146.123 306.93 145.821 306.73 145.604C306.53 145.384 306.254 145.274 305.902 145.274C305.666 145.274 305.458 145.325 305.277 145.426C305.098 145.528 304.958 145.677 304.857 145.872C304.758 146.064 304.707 146.297 304.704 146.569Z" fill="#2D3748"/>
<path d="M312.88 150.231V141.785H314.663V145.27H318.282V141.785H320.061V150.231H318.282V146.742H314.663V150.231H312.88Z" fill="#2D3748"/>
<path d="M324.38 150.355C323.729 150.355 323.169 150.223 322.7 149.959C322.233 149.692 321.874 149.316 321.621 148.829C321.369 148.34 321.242 147.761 321.242 147.093C321.242 146.441 321.369 145.869 321.621 145.377C321.874 144.885 322.229 144.501 322.688 144.226C323.149 143.951 323.69 143.814 324.31 143.814C324.727 143.814 325.116 143.881 325.475 144.016C325.838 144.148 326.153 144.347 326.422 144.614C326.694 144.881 326.905 145.216 327.056 145.62C327.207 146.022 327.283 146.492 327.283 147.031V147.513H321.942V146.424H325.632C325.632 146.172 325.577 145.947 325.467 145.752C325.357 145.557 325.205 145.404 325.01 145.294C324.818 145.182 324.594 145.125 324.339 145.125C324.072 145.125 323.836 145.187 323.631 145.311C323.427 145.432 323.268 145.595 323.153 145.802C323.038 146.005 322.979 146.232 322.976 146.482V147.518C322.976 147.831 323.033 148.102 323.149 148.33C323.267 148.558 323.433 148.734 323.647 148.858C323.861 148.982 324.115 149.044 324.409 149.044C324.604 149.044 324.782 149.016 324.944 148.961C325.106 148.906 325.245 148.824 325.36 148.714C325.475 148.604 325.563 148.469 325.623 148.309L327.246 148.417C327.163 148.807 326.995 149.148 326.739 149.439C326.487 149.728 326.16 149.954 325.759 150.116C325.361 150.275 324.901 150.355 324.38 150.355Z" fill="#2D3748"/>
<path d="M328.427 150.231V143.896H330.128V145.002H330.194C330.309 144.608 330.503 144.311 330.774 144.111C331.046 143.907 331.359 143.805 331.713 143.805C331.801 143.805 331.896 143.811 331.997 143.822C332.099 143.833 332.188 143.848 332.265 143.867V145.426C332.183 145.402 332.069 145.38 331.923 145.36C331.778 145.341 331.645 145.332 331.524 145.332C331.266 145.332 331.035 145.388 330.832 145.501C330.632 145.611 330.473 145.765 330.354 145.963C330.239 146.161 330.182 146.389 330.182 146.647V150.231H328.427Z" fill="#2D3748"/>
<path d="M335.76 150.355C335.109 150.355 334.549 150.223 334.08 149.959C333.613 149.692 333.254 149.316 333.001 148.829C332.749 148.34 332.622 147.761 332.622 147.093C332.622 146.441 332.749 145.869 333.001 145.377C333.254 144.885 333.609 144.501 334.067 144.226C334.529 143.951 335.069 143.814 335.69 143.814C336.107 143.814 336.495 143.881 336.855 144.016C337.217 144.148 337.533 144.347 337.802 144.614C338.074 144.881 338.285 145.216 338.436 145.62C338.587 146.022 338.663 146.492 338.663 147.031V147.513H333.322V146.424H337.012C337.012 146.172 336.957 145.947 336.847 145.752C336.737 145.557 336.585 145.404 336.39 145.294C336.198 145.182 335.974 145.125 335.719 145.125C335.452 145.125 335.216 145.187 335.01 145.311C334.807 145.432 334.648 145.595 334.533 145.802C334.417 146.005 334.358 146.232 334.356 146.482V147.518C334.356 147.831 334.413 148.102 334.529 148.33C334.647 148.558 334.813 148.734 335.027 148.858C335.241 148.982 335.495 149.044 335.789 149.044C335.984 149.044 336.162 149.016 336.324 148.961C336.486 148.906 336.624 148.824 336.74 148.714C336.855 148.604 336.943 148.469 337.003 148.309L338.626 148.417C338.543 148.807 338.374 149.148 338.119 149.439C337.867 149.728 337.54 149.954 337.139 150.116C336.741 150.275 336.281 150.355 335.76 150.355Z" fill="#2D3748"/>
<path d="M0 298.291C0 297.756 0.432606 297.323 0.966252 297.323H543.034C543.567 297.323 544 297.756 544 298.291V300.566H0V298.291Z" fill="#A3ACB1"/>
<path d="M0 298.291C0 297.756 0.432606 297.323 0.966252 297.323H543.034C543.567 297.323 544 297.756 544 298.291V300.566H0V298.291Z" fill="url(#paint0_linear_122_71)"/>
<path d="M0 300.566H544L530.801 303.233C518.224 305.774 505.426 307.053 492.596 307.053H50.3564C36.2564 307.053 22.1987 305.508 8.43448 302.444L0 300.566Z" fill="#647279"/>
<path d="M0 300.566H544L530.801 303.233C518.224 305.774 505.426 307.053 492.596 307.053H50.3564C36.2564 307.053 22.1987 305.508 8.43448 302.444L0 300.566Z" fill="url(#paint1_linear_122_71)"/>
<path fill-rule="evenodd" clip-rule="evenodd" d="M232.081 297.323C232.359 299.134 231.012 300.566 235.302 300.566H309.238C313.528 300.566 312.181 299.134 312.458 297.323H232.081Z" fill="#96A1A8"/>
<path fill-rule="evenodd" clip-rule="evenodd" d="M232.081 297.323C232.359 299.134 231.012 300.566 235.302 300.566H309.238C313.528 300.566 312.181 299.134 312.458 297.323H232.081Z" fill="url(#paint2_linear_122_71)"/>
<defs>
<linearGradient id="paint0_linear_122_71" x1="-1.04943e-10" y1="156.504" x2="544" y2="156.504" gradientUnits="userSpaceOnUse">
<stop stop-color="#0D1012"/>
<stop offset="0.0295345" stop-color="#CAD4DB"/>
<stop offset="0.0625" stop-color="#242729"/>
<stop offset="0.133609" stop-color="#A3ACB1"/>
<stop offset="0.865967" stop-color="#A3ACB1"/>
<stop offset="0.941937" stop-color="#242729"/>
<stop offset="0.971275" stop-color="#CAD4DB"/>
<stop offset="0.996436" stop-color="#0D1012"/>
</linearGradient>
<linearGradient id="paint1_linear_122_71" x1="272" y1="0" x2="272" y2="313" gradientUnits="userSpaceOnUse">
<stop stop-color="#7A7F83"/>
<stop offset="1" stop-color="#0B0B0E"/>
</linearGradient>
<linearGradient id="paint2_linear_122_71" x1="236.111" y1="299.292" x2="310.048" y2="299.292" gradientUnits="userSpaceOnUse">
<stop stop-color="#3C3C3C"/>
<stop offset="0.317518" stop-color="#3C3C3C" stop-opacity="0"/>
<stop offset="0.660584" stop-color="#3C3C3C" stop-opacity="0"/>
<stop offset="1" stop-color="#444444"/>
</linearGradient>
</defs>
</svg>
