<svg width="30" height="30" viewBox="0 0 48 44" fill="none" xmlns="http://www.w3.org/2000/svg">
<path d="M46.24 1.26019C45.6231 0.746979 44.8786 0.410629 44.0857 0.286933C43.2929 0.163236 42.4813 0.256823 41.7374 0.557734L2.90877 16.2343C2.07839 16.576 1.37155 17.1621 0.882067 17.9148C0.392581 18.6676 0.143597 19.5514 0.168161 20.449C0.192726 21.3466 0.489678 22.2154 1.0196 22.9403C1.54953 23.6652 2.28737 24.2117 3.13518 24.5074L10.9893 27.239L15.3671 41.7159C15.4266 41.9093 15.5129 42.0934 15.6236 42.2628C15.6404 42.2888 15.6641 42.3081 15.6819 42.3334C15.8098 42.5118 15.9643 42.6694 16.14 42.8009C16.19 42.839 16.2379 42.8747 16.2913 42.9085C16.497 43.045 16.7248 43.1447 16.9645 43.2034L16.9902 43.2056L17.0047 43.2118C17.1489 43.2411 17.2956 43.256 17.4427 43.2562C17.4569 43.2562 17.4694 43.2495 17.4835 43.2492C17.7055 43.2453 17.9255 43.2071 18.1358 43.1359C18.1847 43.1192 18.2267 43.0913 18.2741 43.0712C18.431 43.0062 18.5795 42.9229 18.7168 42.823C18.8267 42.7304 18.9366 42.6378 19.0466 42.5453L24.9013 36.0813L33.6335 42.8458C34.4023 43.4443 35.3485 43.7696 36.3228 43.7704C37.3437 43.7691 38.3331 43.4169 39.1251 42.7727C39.9172 42.1286 40.4637 41.2318 40.6731 40.2326L47.7423 5.53006C47.9025 4.74902 47.8473 3.93911 47.5827 3.187C47.3181 2.43489 46.854 1.76887 46.24 1.26019ZM18.3018 27.9288C18.0014 28.2281 17.7961 28.6093 17.7115 29.0249L17.0409 32.2835L15.3421 26.6652L24.1502 22.0785L18.3018 27.9288ZM36.289 39.4201L25.9698 31.4263C25.5381 31.0927 24.9965 30.934 24.453 30.9818C23.9095 31.0297 23.404 31.2805 23.0372 31.6844L21.1621 33.754L21.8248 30.5334L37.1713 15.1869C37.5376 14.8211 37.7608 14.3362 37.8004 13.82C37.84 13.3038 37.6935 12.7905 37.3873 12.3731C37.0811 11.9556 36.6356 11.6616 36.1313 11.5444C35.6271 11.4271 35.0975 11.4943 34.6386 11.7338L12.6138 23.2011L4.54436 20.2482L43.4978 4.66461L36.289 39.4201Z" fill="black"/>
</svg>
