<svg xmlns="http://www.w3.org/2000/svg" width="396" height="524" viewBox="0 0 396 524" fill="none">
<g filter="url(#filter0_dd_116_162)">
<path d="M6 20C6 8.95431 14.9543 0 26 0H370C381.046 0 390 8.95431 390 20V492C390 503.046 381.046 512 370 512H26C14.9543 512 6 503.046 6 492V20Z" fill="#F5F5F5"/>
</g>
<g filter="url(#filter1_i_116_162)">
<path d="M6 20C6 8.95431 14.9543 0 26 0H370C381.046 0 390 8.95431 390 20V47H6V20Z" fill="#767676"/>
</g>
<circle cx="31" cy="24" r="11" fill="#FF605C"/>
<circle cx="61" cy="24" r="11" fill="#FFBD44"/>
<circle cx="91" cy="24" r="11" fill="#00CA4E"/>
<defs>
<filter id="filter0_dd_116_162" x="0" y="0" width="396" height="524" filterUnits="userSpaceOnUse" color-interpolation-filters="sRGB">
<feFlood flood-opacity="0" result="BackgroundImageFix"/>
<feColorMatrix in="SourceAlpha" type="matrix" values="0 0 0 0 0 0 0 0 0 0 0 0 0 0 0 0 0 0 127 0" result="hardAlpha"/>
<feOffset dy="6"/>
<feGaussianBlur stdDeviation="3"/>
<feComposite in2="hardAlpha" operator="out"/>
<feColorMatrix type="matrix" values="0 0 0 0 0 0 0 0 0 0 0 0 0 0 0 0 0 0 0.55 0"/>
<feBlend mode="normal" in2="BackgroundImageFix" result="effect1_dropShadow_116_162"/>
<feColorMatrix in="SourceAlpha" type="matrix" values="0 0 0 0 0 0 0 0 0 0 0 0 0 0 0 0 0 0 127 0" result="hardAlpha"/>
<feOffset dy="6"/>
<feGaussianBlur stdDeviation="3"/>
<feComposite in2="hardAlpha" operator="out"/>
<feColorMatrix type="matrix" values="0 0 0 0 0 0 0 0 0 0 0 0 0 0 0 0 0 0 0.55 0"/>
<feBlend mode="normal" in2="effect1_dropShadow_116_162" result="effect2_dropShadow_116_162"/>
<feBlend mode="normal" in="SourceGraphic" in2="effect2_dropShadow_116_162" result="shape"/>
</filter>
<filter id="filter1_i_116_162" x="6" y="0" width="384" height="51" filterUnits="userSpaceOnUse" color-interpolation-filters="sRGB">
<feFlood flood-opacity="0" result="BackgroundImageFix"/>
<feBlend mode="normal" in="SourceGraphic" in2="BackgroundImageFix" result="shape"/>
<feColorMatrix in="SourceAlpha" type="matrix" values="0 0 0 0 0 0 0 0 0 0 0 0 0 0 0 0 0 0 127 0" result="hardAlpha"/>
<feOffset dy="4"/>
<feGaussianBlur stdDeviation="2"/>
<feComposite in2="hardAlpha" operator="arithmetic" k2="-1" k3="1"/>
<feColorMatrix type="matrix" values="0 0 0 0 0 0 0 0 0 0 0 0 0 0 0 0 0 0 0.25 0"/>
<feBlend mode="normal" in2="shape" result="effect1_innerShadow_116_162"/>
</filter>
</defs>
</svg>